# xmcd
#
# Track frame offsets: 
#        150
#        3455
#        22398
#        39816
#        60428
#        76958
#        92337
#        110810
#        125714
#        143902
#        170467
#        189037
#        213697
#        229656
#        244125
#
# Disc length: 3682 seconds
#
# Revision: 0
# Processed by: cddbd v1.5.2PL0 Copyright (c) Steve Scherf et al.
# Submitted via: ExactAudioCopy v1.3
#
DISCID=c50e600f
DTITLE=Jim Quick and Coastline - Live At Hoto's
DYEAR=2010
DGENRE=Blues
TTITLE0=Introduction
TTITLE1=Mama's Drinkin Liquor Again
TTITLE2=I Told You Everything
TTITLE3=Tennessee
TTITLE4=Its Gonna Rain
TTITLE5=Sweat
TTITLE6=A Little Bit Of Money
TTITLE7=She Poured It On
TTITLE8=I Didn't Buy This Beer
TTITLE9=Rough God Goes Riding
TTITLE10=Up To No Good
TTITLE11=Turn Me Over
TTITLE12=Trying To Live My Life Without You
TTITLE13=Mississippi Mud
TTITLE14=Turn Myself In
EXTD=
EXTT0=
EXTT1=
EXTT2=
EXTT3=
EXTT4=
EXTT5=
EXTT6=
EXTT7=
EXTT8=
EXTT9=
EXTT10=
EXTT11=
EXTT12=
EXTT13=
EXTT14=
PLAYORDER=
